<svg xmlns="http://www.w3.org/2000/svg" class="icon" viewBox="0 0 1024 1280" version="1.1" x="0px" y="0px"><path fill="#000000" d="M661.333333 775.111111h106.666667a49.777778 49.777778 0 0 0 0-99.555555H672.796444A283.128889 283.128889 0 0 1 512 725.333333c-157.091556 0-284.444444-127.352889-284.444444-284.444444a283.128889 283.128889 0 0 1 39.111111-144.042667l-63.104-63.118222A70.805333 70.805333 0 0 1 170.666667 241.777778c-39.274667 0-71.111111-31.836444-71.111111-71.111111s31.836444-71.111111 71.111111-71.111111 71.111111 31.836444 71.111111 71.111111a70.805333 70.805333 0 0 1-8.049778 32.896l57.706667 57.699555C343.594667 197.297778 423.025778 156.444444 512 156.444444c90.759111 0 171.591111 42.503111 223.665778 108.693334l57.137778-57.137778A70.776889 70.776889 0 0 1 782.222222 170.666667c0-39.274667 31.836444-71.111111 71.111111-71.111111s71.111111 31.836444 71.111111 71.111111-31.836444 71.111111-71.111111 71.111111a70.876444 70.876444 0 0 1-28.167111-5.795556l-65.287111 65.28A283.150222 283.150222 0 0 1 796.444444 440.888889c0 73.998222-28.259556 141.404444-74.574222 192H768c51.057778 0 92.444444 41.386667 92.444444 92.444444s-41.386667 92.444444-92.444444 92.444445H238.222222a32 32 0 0 0 0 64H661.333333v42.666666H238.222222c-41.237333 0-74.666667-33.429333-74.666666-74.666666S196.984889 775.111111 238.222222 775.111111H661.333333zM320.554667 293.205333c15.616 180.551111 160.974222 323.982222 342.357333 336.590223a243.228444 243.228444 0 0 0 39.367111-39.729778c-174.222222-27.52-312.163556-164.131556-341.696-337.678222a243.221333 243.221333 0 0 0-40.035555 40.817777z m-33.784889 59.605334A241.166222 241.166222 0 0 0 270.222222 440.888889c0 133.532444 108.245333 241.777778 241.777778 241.777778a241.066667 241.066667 0 0 0 91.904-18.076445C446.648889 631.623111 322.325333 509.084444 286.769778 352.810667z m451.946666 3.889777a241.379556 241.379556 0 0 0-36.245333-64.753777c-86.343111 4.060444-171.534222 38.229333-238.492444 102.506666a371.733333 371.733333 0 0 0 45.539555 53.489778c67.107556-54.698667 147.413333-85.12 229.191111-91.242667z m11.399112 42.019556c-73.742222 3.896889-146.545778 29.76-207.751112 77.596444a367.907556 367.907556 0 0 0 185.258667 74.069334A240.760889 240.760889 0 0 0 753.777778 440.888889c0-14.385778-1.258667-28.472889-3.662222-42.168889zM663.793778 252.686222A240.768 240.768 0 0 0 512 199.111111a240.732444 240.732444 0 0 0-112.042667 27.470222 367.303111 367.303111 0 0 0 41.194667 130.780445 410.446222 410.446222 0 0 1 222.648889-104.675556zM853.333333 199.111111a28.444444 28.444444 0 1 0 0-56.888889 28.444444 28.444444 0 0 0 0 56.888889z m-682.666666 0a28.444444 28.444444 0 1 0 0-56.888889 28.444444 28.444444 0 0 0 0 56.888889z"/><text x="0" y="1039" fill="#000000" font-size="5px" font-weight="bold" font-family="'Helvetica Neue', Helvetica, Arial-Unicode, Arial, Sans-serif">Created by Dao Ge</text><text x="0" y="1044" fill="#000000" font-size="5px" font-weight="bold" font-family="'Helvetica Neue', Helvetica, Arial-Unicode, Arial, Sans-serif">from the Noun Project</text></svg>